# xmcd CD database file
#
# Track frame offsets:
#	150
#	14872
#	28750
#	43460
#	57000
#	70967
#	84705
#	99567
#	113955
#	127400
#	154467
#	167092
#	193155
#	207250
#	221095
#	236457
#	251522
#	264115
#	278260
#
# Disc length: 3898 seconds
#
# Revision: 2
# Processed by: cddbd v1.5.2PL0 Copyright (c) Steve Scherf et al.
# Submitted via: CDex 1.51
#
DISCID=210f3813
DTITLE=Lionel Hampton - Vol. 115 - and His Orchestra
DYEAR=1993
DGENRE=Jazz
TTITLE0=Hamp's Boogie Woogie No. 1
TTITLE1=Beulah's Sister's Boogie
TTITLE2=Midnight Sun
TTITLE3=Hamp's Walking Boogie
TTITLE4=Cobb''s Idea
TTITLE5=Red Top
TTITLE6=Hey! Ba-Ba-Re-Bop
TTITLE7=Flying Home No. 1
TTITLE8=Hamp's Boogie Woogie No. 2
TTITLE9=Air Mail Special
TTITLE10=Slide Hamp Slide
TTITLE11=Rockin' In Rhythm
TTITLE12=Flying Home No. 2
TTITLE13=Loose Wig
TTITLE14=In The Bag
TTITLE15=Adam Blew His Hat
TTITLE16=Tempo's Birthday
TTITLE17=Playboy
TTITLE18=Empty Glass (Normania)
EXTD=YEAR: 1993
EXTT0=
EXTT1=
EXTT2=
EXTT3=
EXTT4=
EXTT5=
EXTT6=
EXTT7=
EXTT8=
EXTT9=
EXTT10=
EXTT11=
EXTT12=
EXTT13=
EXTT14=
EXTT15=
EXTT16=
EXTT17=
EXTT18=
PLAYORDER=
